<svg width="14" height="14" viewBox="0 0 14 14" fill="none" xmlns="http://www.w3.org/2000/svg">
<path fill-rule="evenodd" clip-rule="evenodd" d="M4.8221 1.11199C5.24697 0.687253 5.78678 0.396037 6.37506 0.274205C6.96334 0.152373 7.57441 0.205244 8.13302 0.426309C8.69164 0.647373 9.1734 1.02698 9.519 1.51838C9.8646 2.00979 10.0589 2.59154 10.0781 3.19199C10.8417 2.97189 11.661 3.05648 12.3635 3.42799C13.066 3.79949 13.5971 4.42895 13.8451 5.18399C14.0906 5.93667 14.0338 6.75631 13.6867 7.46786C13.3396 8.17941 12.7294 8.72812 11.9851 8.99799C12.4263 9.65422 12.5945 10.4565 12.4539 11.2347C12.3133 12.0129 11.8751 12.7056 11.2321 13.166C10.588 13.6312 9.78938 13.8304 9.00223 13.7222C8.21507 13.614 7.49985 13.2067 7.0051 12.585C6.69701 12.9726 6.30029 13.2805 5.84834 13.4827C5.39639 13.685 4.90246 13.7757 4.40815 13.7472C3.91383 13.7186 3.43361 13.5717 3.00793 13.3188C2.58224 13.066 2.22356 12.7145 1.9621 12.294C1.65449 11.7972 1.49656 11.2224 1.5072 10.6382C1.51784 10.054 1.69661 9.48522 2.0221 8.99999C1.27965 8.72534 0.672417 8.17381 0.32781 7.46113C-0.0167964 6.74844 -0.0719958 5.92999 0.173794 5.17749C0.419583 4.42498 0.947258 3.79691 1.64611 3.42505C2.34496 3.05319 3.16067 2.96644 3.9221 3.18299C3.94935 2.40397 4.27097 1.66425 4.8221 1.11299V1.11199ZM9.2051 7.25999C9.2051 8.47 8.2181 9.44999 7.0001 9.44999C6.41749 9.45132 5.85814 9.2215 5.44476 8.81094C5.03139 8.40037 4.79775 7.8426 4.7951 7.25999C4.7951 6.04999 5.7821 5.06999 7.0001 5.06999C8.2181 5.06999 9.2051 6.04999 9.2051 7.25999Z" fill="#241217"/>
</svg>
