<svg width="196" height="46" viewBox="0 0 196 46" fill="none" xmlns="http://www.w3.org/2000/svg">
<path d="M17.624 45.848C14.104 45.848 11.032 45.304 8.408 44.216C5.816 43.128 3.8 41.64 2.36 39.752C0.952 37.832 0.248 35.656 0.248 33.224C0.248 31.24 0.6 29.432 1.304 27.8C2.008 26.168 2.936 24.808 4.088 23.72C5.272 22.632 6.568 21.912 7.976 21.56C8.2 21.528 8.312 21.608 8.312 21.8C8.312 21.96 8.232 22.088 8.072 22.184C6.408 23.176 5.128 24.6 4.232 26.456C3.368 28.312 2.936 30.376 2.936 32.648C2.936 35.112 3.576 37.24 4.856 39.032C6.136 40.792 7.88 42.136 10.088 43.064C12.328 44.024 14.84 44.504 17.624 44.504C20.024 44.504 22.296 44.072 24.44 43.208C26.616 42.376 28.616 41.224 30.44 39.752C32.264 38.28 33.896 36.616 35.336 34.76C36.808 32.872 38.04 30.904 39.032 28.856C39.256 28.376 39.48 27.912 39.704 27.464C39.928 27.016 40.152 26.568 40.376 26.12C39.608 26.088 38.904 26.056 38.264 26.024C37.656 25.992 37.24 25.976 37.016 25.976C36.152 25.976 35.224 26.04 34.232 26.168C33.272 26.264 32.36 26.472 31.496 26.792C30.664 27.112 29.976 27.608 29.432 28.28C29.208 28.504 29.064 28.68 29 28.808C28.968 28.936 28.904 29 28.808 29C28.68 29 28.568 28.904 28.472 28.712C28.376 28.488 28.392 28.248 28.52 27.992C29.256 26.36 30.296 25.256 31.64 24.68C32.984 24.072 34.488 23.768 36.152 23.768C36.504 23.768 37.16 23.832 38.12 23.96C39.112 24.056 40.152 24.168 41.24 24.296C42.648 21.448 43.928 18.872 45.08 16.568C46.264 14.264 47.368 12.344 48.392 10.808C46.088 10.04 43.64 9.368 41.048 8.792C38.456 8.184 35.672 7.88 32.696 7.88C30.488 7.88 28.488 8.184 26.696 8.792C24.904 9.4 23.368 10.216 22.088 11.24C20.84 12.264 19.88 13.4 19.208 14.648C18.536 15.896 18.2 17.144 18.2 18.392C18.2 19.8 18.472 20.92 19.016 21.752C19.56 22.584 20.264 23.192 21.128 23.576C22.024 23.928 22.936 24.104 23.864 24.104C25.24 24.104 26.408 23.768 27.368 23.096C28.36 22.424 29.144 21.672 29.72 20.84C30.296 19.976 30.648 19.272 30.776 18.728C30.904 18.216 31.096 17.96 31.352 17.96C31.736 17.96 31.896 18.184 31.832 18.632C31.64 20.04 31.144 21.256 30.344 22.28C29.544 23.304 28.568 24.088 27.416 24.632C26.264 25.144 25.048 25.4 23.768 25.4C22.456 25.4 21.192 25.08 19.976 24.44C18.76 23.8 17.768 22.872 17 21.656C16.232 20.44 15.848 18.968 15.848 17.24C15.848 15.832 16.152 14.44 16.76 13.064C17.4 11.656 18.344 10.376 19.592 9.224C20.872 8.04 22.488 7.096 24.44 6.392C26.392 5.688 28.696 5.336 31.352 5.336C33.24 5.336 35.176 5.56 37.16 6.008C39.144 6.424 41.144 6.968 43.16 7.64C45.208 8.28 47.224 8.952 49.208 9.656C49.88 8.792 50.52 8.136 51.128 7.688C51.736 7.208 52.344 6.968 52.952 6.968C53.208 6.968 53.384 7.032 53.48 7.16C53.576 7.256 53.624 7.352 53.624 7.448C53.624 7.576 53.576 7.72 53.48 7.88C53.384 8.04 53.208 8.12 52.952 8.12C51.896 8.12 50.904 8.712 49.976 9.896C52.28 10.664 54.488 11.352 56.6 11.96C58.744 12.536 60.728 12.824 62.552 12.824C63.96 12.824 64.888 12.68 65.336 12.392C65.784 12.072 66.008 11.64 66.008 11.096C66.008 10.744 66.12 10.568 66.344 10.568C66.504 10.568 66.648 10.68 66.776 10.904C66.936 11.096 67.016 11.336 67.016 11.624C67.016 12.392 66.584 13.016 65.72 13.496C64.888 13.976 63.72 14.216 62.216 14.216C60.232 14.216 58.168 13.896 56.024 13.256C53.88 12.584 51.608 11.848 49.208 11.048C48.344 12.488 47.496 14.376 46.664 16.712C45.832 19.016 44.856 21.624 43.736 24.536C45.112 24.664 46.568 24.776 48.104 24.872C49.64 24.936 50.888 24.968 51.848 24.968C52.168 24.968 52.328 25.064 52.328 25.256C52.328 25.512 51.96 25.736 51.224 25.928C50.744 26.056 49.928 26.152 48.776 26.216C47.656 26.28 46.488 26.312 45.272 26.312C45.016 26.312 44.696 26.312 44.312 26.312C43.928 26.28 43.512 26.264 43.064 26.264C42.776 27 42.472 27.752 42.152 28.52C41.864 29.256 41.544 30.024 41.192 30.824C39.848 33.992 38.2 36.568 36.248 38.552C34.328 40.504 32.264 42.008 30.056 43.064C27.88 44.152 25.704 44.888 23.528 45.272C21.384 45.656 19.416 45.848 17.624 45.848ZM57.8068 41.144C56.6228 41.144 55.7428 40.792 55.1668 40.088C54.6228 39.352 54.3508 38.488 54.3508 37.496C54.3508 36.472 54.4948 35.416 54.7828 34.328C55.0708 33.24 55.3268 32.328 55.5508 31.592C56.0628 29.8 56.7028 27.896 57.4708 25.88C58.2708 23.832 59.1348 21.832 60.0628 19.88C61.0228 17.896 61.9668 16.12 62.8948 14.552C63.6308 13.304 64.4148 12.376 65.2468 11.768C66.1108 11.128 66.8628 10.808 67.5028 10.808C68.0148 10.808 68.4148 11 68.7028 11.384C69.0228 11.736 69.1828 12.28 69.1828 13.016C69.1828 13.528 69.0868 14.136 68.8948 14.84C68.7348 15.544 68.4468 16.344 68.0308 17.24C66.9108 19.736 65.5668 22.232 63.9988 24.728C62.4628 27.224 60.5108 29.56 58.1428 31.736C57.7588 32.632 57.4388 33.592 57.1828 34.616C56.9268 35.64 56.7988 36.472 56.7988 37.112C56.7988 39.096 57.4708 40.088 58.8148 40.088C59.8388 40.088 60.9748 39.352 62.2228 37.88C63.4708 36.376 64.6548 34.328 65.7748 31.736C65.9028 31.736 66.0308 31.768 66.1588 31.832C66.2868 31.864 66.3508 31.976 66.3508 32.168C65.9988 33.032 65.5508 33.992 65.0068 35.048C64.4948 36.072 63.8868 37.048 63.1828 37.976C62.5108 38.904 61.7268 39.672 60.8308 40.28C59.9348 40.856 58.9268 41.144 57.8068 41.144ZM58.5268 30.2C59.6788 29.016 60.7988 27.656 61.8868 26.12C62.9748 24.552 63.9828 22.936 64.9108 21.272C65.8708 19.576 66.6708 17.976 67.3108 16.472C67.5348 15.992 67.7108 15.464 67.8388 14.888C67.9988 14.312 68.0788 13.832 68.0788 13.448C68.0788 13 67.9668 12.776 67.7428 12.776C67.6148 12.776 67.4228 12.904 67.1668 13.16C66.9108 13.384 66.5748 13.784 66.1588 14.36C65.5508 15.16 64.8788 16.248 64.1428 17.624C63.4388 19 62.7188 20.472 61.9828 22.04C61.2468 23.608 60.5748 25.128 59.9668 26.6C59.3588 28.04 58.8788 29.24 58.5268 30.2ZM73.9775 24.152C75.1935 24.152 76.1055 24.552 76.7135 25.352C77.3535 26.152 77.7215 27.16 77.8175 28.376C77.9135 29.848 77.6735 31.352 77.0975 32.888C77.0015 33.144 76.9055 33.4 76.8095 33.656C77.8655 33.816 78.7935 33.448 79.5935 32.552C80.3935 31.624 81.0655 30.36 81.6095 28.76C82.1535 27.352 82.6015 25.976 82.9535 24.632C83.3375 23.256 83.6415 21.976 83.8655 20.792C83.9615 20.28 84.1375 19.912 84.3935 19.688C84.6495 19.432 84.9215 19.304 85.2095 19.304C85.6255 19.304 86.0095 19.512 86.3615 19.928C86.7135 20.312 86.8895 20.872 86.8895 21.608C86.8895 21.736 86.8735 21.88 86.8415 22.04C86.8415 22.2 86.8255 22.36 86.7935 22.52C86.6655 23.192 86.2815 23.832 85.6415 24.44C85.0335 25.016 84.5375 25.448 84.1535 25.736C84.4735 25.768 84.8095 25.8 85.1615 25.832C85.5135 25.832 85.8975 25.832 86.3135 25.832C87.8175 25.832 89.3055 25.736 90.7775 25.544C90.8415 25.736 90.8735 25.88 90.8735 25.976C90.8735 26.392 90.7455 26.92 90.4895 27.56C90.2655 28.2 90.0255 28.776 89.7695 29.288C89.6415 29.576 89.3855 30.104 89.0015 30.872C88.6175 31.608 88.2015 32.456 87.7535 33.416C87.3055 34.344 86.9215 35.272 86.6015 36.2C86.3135 37.096 86.1695 37.864 86.1695 38.504C86.1695 39.336 86.4895 39.752 87.1295 39.752C87.6095 39.752 88.1375 39.448 88.7135 38.84C89.2895 38.232 89.8655 37.48 90.4415 36.584C91.0175 35.688 91.5295 34.808 91.9775 33.944C92.4575 33.048 92.8095 32.312 93.0335 31.736C93.4175 31.736 93.6095 31.88 93.6095 32.168C93.1615 33.192 92.5855 34.344 91.8815 35.624C91.2095 36.904 90.4255 38.056 89.5295 39.08C88.6335 40.104 87.6575 40.744 86.6015 41C86.5055 41.032 86.3295 41.048 86.0735 41.048C85.4655 41.048 84.8575 40.808 84.2495 40.328C83.6415 39.816 83.3375 39 83.3375 37.88C83.3375 37.016 83.5455 36.024 83.9615 34.904C84.3455 33.816 84.8575 32.76 85.4975 31.736C86.1695 30.712 86.6495 29.88 86.9375 29.24C87.0335 28.984 87.0815 28.76 87.0815 28.568C87.0815 27.992 86.7135 27.576 85.9775 27.32C85.2735 27.064 84.3455 26.92 83.1935 26.888L82.6175 28.472C81.9455 30.68 81.0815 32.344 80.0255 33.464C79.0015 34.552 77.7695 34.936 76.3295 34.616C75.7855 35.672 75.0975 36.696 74.2655 37.688C73.4335 38.648 72.5375 39.448 71.5775 40.088C70.6175 40.696 69.6415 41 68.6495 41C67.4335 41 66.5055 40.6 65.8655 39.8C65.2575 38.968 64.9055 37.96 64.8095 36.776C64.7135 35.368 64.9535 33.864 65.5295 32.264C66.0415 30.792 66.7455 29.448 67.6415 28.232C68.5695 27.016 69.5775 26.04 70.6655 25.304C71.7855 24.536 72.8895 24.152 73.9775 24.152ZM76.4255 30.392C76.6175 29.56 76.6815 28.776 76.6175 28.04C76.5855 27.304 76.4095 26.728 76.0895 26.312C75.7695 25.896 75.3215 25.688 74.7455 25.688C74.0735 25.688 73.3695 25.976 72.6335 26.552C71.8975 27.128 71.1935 27.896 70.5215 28.856C69.8815 29.816 69.3215 30.888 68.8415 32.072C68.3935 33.16 68.0575 34.216 67.8335 35.24C67.6095 36.232 67.5295 37.096 67.5935 37.832C67.6575 38.472 67.8175 38.984 68.0735 39.368C68.3615 39.752 68.7775 39.944 69.3215 39.944C70.0575 39.944 70.8095 39.624 71.5775 38.984C72.3455 38.344 73.0495 37.576 73.6895 36.68C74.3295 35.784 74.8255 34.952 75.1775 34.184C74.7295 33.736 74.3935 33.272 74.1695 32.792C73.9455 32.28 73.8335 31.896 73.8335 31.64C73.8015 31.128 73.8975 30.696 74.1215 30.344C74.3455 29.992 74.7295 29.816 75.2735 29.816C75.7215 29.816 76.1055 30.008 76.4255 30.392ZM103.467 41.144C102.731 41.144 102.075 40.936 101.499 40.52C100.955 40.104 100.683 39.256 100.683 37.976C100.683 37.432 100.715 36.92 100.779 36.44C100.875 35.96 100.987 35.448 101.115 34.904C100.827 35.384 100.427 35.976 99.9148 36.68C99.4028 37.384 98.8268 38.072 98.1868 38.744C97.5788 39.416 96.9388 39.976 96.2668 40.424C95.6268 40.872 95.0188 41.096 94.4428 41.096C93.6108 41.096 92.9388 40.728 92.4268 39.992C91.9148 39.224 91.6588 38.232 91.6588 37.016C91.6588 35.704 91.9628 34.296 92.5708 32.792C93.1788 31.288 94.0108 29.848 95.0668 28.472C96.1228 27.096 97.3388 25.976 98.7148 25.112C100.091 24.248 101.531 23.816 103.035 23.816C103.771 23.816 104.475 23.944 105.147 24.2C105.819 24.424 106.411 24.808 106.923 25.352C107.147 25.576 107.259 25.832 107.259 26.12C107.259 26.312 107.179 26.472 107.019 26.6C106.859 26.728 106.651 26.76 106.395 26.696C106.043 25.576 105.291 25.016 104.139 25.016C103.595 25.016 102.971 25.192 102.267 25.544C101.403 25.992 100.475 26.712 99.4828 27.704C98.5228 28.664 97.6108 29.768 96.7468 31.016C95.9148 32.232 95.2268 33.464 94.6828 34.712C94.1388 35.96 93.8668 37.096 93.8668 38.12C93.8668 39.176 94.2668 39.704 95.0668 39.704C95.7708 39.704 96.4908 39.368 97.2268 38.696C97.9948 38.024 98.7148 37.192 99.3868 36.2C100.091 35.176 100.731 34.168 101.307 33.176C101.883 32.184 102.331 31.384 102.651 30.776C103.131 29.912 103.579 29.192 103.995 28.616C104.411 28.04 105.003 27.752 105.771 27.752C106.123 27.752 106.475 27.8 106.827 27.896C107.179 27.992 107.547 28.008 107.931 27.944C106.971 28.904 106.123 30.04 105.387 31.352C104.683 32.664 104.139 33.96 103.755 35.24C103.371 36.488 103.179 37.544 103.179 38.408C103.179 39.368 103.499 39.848 104.139 39.848C104.651 39.848 105.195 39.56 105.771 38.984C106.379 38.408 106.955 37.688 107.499 36.824C108.075 35.928 108.603 35.032 109.083 34.136C109.563 33.208 109.947 32.408 110.235 31.736C110.395 31.736 110.523 31.752 110.619 31.784C110.747 31.816 110.811 31.944 110.811 32.168C110.779 32.296 110.715 32.44 110.619 32.6C110.555 32.728 110.443 32.968 110.283 33.32C110.027 33.832 109.675 34.52 109.227 35.384C108.779 36.248 108.251 37.128 107.643 38.024C107.035 38.888 106.379 39.624 105.675 40.232C104.971 40.84 104.235 41.144 103.467 41.144ZM143.278 9.368C143.278 10.584 143.038 12.088 142.558 13.88C142.11 15.64 141.502 17.576 140.734 19.688C139.998 21.768 139.214 23.896 138.382 26.072C137.55 28.248 136.75 30.36 135.982 32.408C135.246 34.424 134.638 36.264 134.158 37.928C133.71 39.56 133.486 40.872 133.486 41.864C133.486 43.368 133.982 44.12 134.974 44.12C135.934 44.12 137.102 43.672 138.478 42.776C139.854 41.912 141.31 40.744 142.846 39.272C144.414 37.768 145.95 36.072 147.454 34.184C148.958 32.264 150.318 30.28 151.534 28.232C152.782 26.184 153.774 24.168 154.51 22.184C155.246 20.168 155.614 18.328 155.614 16.664C155.614 15.544 155.454 14.536 155.134 13.64C154.846 12.744 154.222 12.296 153.262 12.296C152.846 12.296 152.51 12.216 152.254 12.056C152.03 11.864 151.918 11.688 151.918 11.528C151.918 11.208 152.19 11.048 152.734 11.048C153.118 11.048 153.598 11.192 154.174 11.48C154.782 11.736 155.374 12.152 155.95 12.728C156.558 13.272 157.07 13.976 157.486 14.84C157.902 15.704 158.11 16.728 158.11 17.912C158.11 19.384 157.71 21.096 156.91 23.048C156.142 24.968 155.086 26.968 153.742 29.048C152.43 31.096 150.926 33.112 149.23 35.096C147.566 37.048 145.822 38.824 143.998 40.424C142.174 41.992 140.382 43.24 138.622 44.168C136.894 45.128 135.294 45.608 133.822 45.608C132.574 45.608 131.742 45.224 131.326 44.456C130.91 43.688 130.702 42.68 130.702 41.432C130.702 39.48 131.022 37.352 131.662 35.048C132.334 32.744 133.15 30.36 134.11 27.896C135.102 25.4 136.078 22.92 137.038 20.456C138.03 17.992 138.846 15.624 139.486 13.352C140.158 11.08 140.494 8.984 140.494 7.064C140.494 4.888 139.87 3.416 138.622 2.648C137.406 1.88 135.806 1.496 133.822 1.496C131.87 1.496 129.79 1.864 127.582 2.6C125.406 3.336 123.262 4.376 121.15 5.72C119.07 7.064 117.182 8.68 115.486 10.568C113.79 12.424 112.43 14.504 111.406 16.808C110.414 19.08 109.918 21.528 109.918 24.152C109.918 25.688 110.174 27.128 110.686 28.472C111.23 29.784 112.094 30.856 113.278 31.688C114.462 32.488 116.014 32.888 117.934 32.888C119.374 32.888 120.75 32.584 122.062 31.976C123.406 31.368 124.59 30.552 125.614 29.528C126.638 28.472 127.454 27.304 128.062 26.024C128.67 24.744 128.974 23.432 128.974 22.088C128.974 21 128.75 20.056 128.302 19.256C127.854 18.424 127.102 18.008 126.046 18.008C125.63 18.008 125.198 18.072 124.75 18.2C124.302 18.328 123.998 18.392 123.838 18.392C123.678 18.392 123.598 18.296 123.598 18.104C123.598 18.04 123.63 17.96 123.694 17.864C123.758 17.768 123.87 17.672 124.03 17.576C124.382 17.384 124.814 17.24 125.326 17.144C125.838 17.016 126.286 16.952 126.67 16.952C128.078 16.952 129.166 17.448 129.934 18.44C130.702 19.432 131.086 20.632 131.086 22.04C131.086 23.576 130.686 25.064 129.886 26.504C129.086 27.944 128.014 29.24 126.67 30.392C125.358 31.544 123.87 32.456 122.206 33.128C120.574 33.8 118.894 34.136 117.166 34.136C115.022 34.136 113.198 33.608 111.694 32.552C110.222 31.496 109.102 30.12 108.334 28.424C107.598 26.696 107.23 24.856 107.23 22.904C107.23 20.376 107.726 17.976 108.718 15.704C109.742 13.4 111.134 11.32 112.894 9.464C114.654 7.576 116.654 5.944 118.894 4.568C121.134 3.192 123.486 2.136 125.95 1.4C128.446 0.631998 130.926 0.247998 133.39 0.247998C135.246 0.247998 136.91 0.551998 138.382 1.16C139.886 1.768 141.07 2.744 141.934 4.088C142.83 5.4 143.278 7.16 143.278 9.368ZM159.879 41C158.695 41 157.863 40.664 157.383 39.992C156.903 39.288 156.663 38.488 156.663 37.592C156.663 37.112 156.711 36.632 156.807 36.152C156.935 35.64 157.079 35.176 157.239 34.76L160.455 26.552C160.551 26.296 160.599 26.072 160.599 25.88C160.599 25.56 160.519 25.288 160.359 25.064C160.199 24.808 160.087 24.632 160.023 24.536L162.663 24.44C163.143 24.408 163.479 24.472 163.671 24.632C163.895 24.76 164.007 24.92 164.007 25.112C164.007 25.304 163.895 25.656 163.671 26.168C163.351 26.936 162.919 27.896 162.375 29.048C161.831 30.2 161.287 31.384 160.743 32.6C160.231 33.816 159.783 34.952 159.399 36.008C159.047 37.064 158.871 37.88 158.871 38.456C158.871 38.872 158.967 39.224 159.159 39.512C159.383 39.8 159.751 39.944 160.263 39.944C160.935 39.944 161.591 39.688 162.231 39.176C162.903 38.632 163.527 37.944 164.103 37.112C164.679 36.28 165.207 35.384 165.687 34.424C166.199 33.464 166.631 32.568 166.983 31.736C167.367 31.736 167.559 31.88 167.559 32.168C167.239 32.968 166.823 33.88 166.311 34.904C165.799 35.928 165.207 36.904 164.535 37.832C163.895 38.728 163.175 39.48 162.375 40.088C161.607 40.696 160.775 41 159.879 41ZM164.151 21.464C163.735 21.464 163.367 21.304 163.047 20.984C162.759 20.664 162.615 20.28 162.615 19.832C162.615 19.288 162.839 18.808 163.287 18.392C163.735 17.944 164.231 17.72 164.775 17.72C165.223 17.72 165.607 17.864 165.927 18.152C166.247 18.44 166.407 18.808 166.407 19.256C166.407 19.832 166.183 20.344 165.735 20.792C165.287 21.24 164.759 21.464 164.151 21.464ZM169.901 41.24C168.589 41.24 167.661 40.84 167.117 40.04C166.573 39.24 166.301 38.264 166.301 37.112C166.301 36.312 166.381 35.56 166.541 34.856C166.733 34.152 167.005 33.352 167.357 32.456H167.261C167.005 32.456 166.877 32.328 166.877 32.072C166.877 31.944 167.005 31.576 167.261 30.968C167.549 30.36 167.901 29.624 168.317 28.76C168.765 27.896 169.213 27.016 169.661 26.12C170.141 25.224 170.573 24.424 170.957 23.72C171.597 22.536 172.301 21.32 173.069 20.072C173.837 18.792 174.589 17.576 175.325 16.424C176.093 15.272 176.733 14.328 177.245 13.592C178.397 11.992 179.469 11.192 180.461 11.192H180.701C180.989 11.192 181.309 11.24 181.661 11.336C182.045 11.432 182.397 11.448 182.717 11.384C182.237 11.896 181.501 12.824 180.509 14.168C179.549 15.48 178.493 16.984 177.341 18.68C176.861 19.384 176.253 20.328 175.517 21.512C174.813 22.696 174.061 24.024 173.261 25.496C172.461 26.968 171.709 28.472 171.005 30.008C170.333 31.512 169.773 32.984 169.325 34.424C168.877 35.832 168.653 37.096 168.653 38.216C168.653 38.952 168.781 39.464 169.037 39.752C169.293 40.04 169.613 40.184 169.997 40.184C170.477 40.184 171.037 39.912 171.677 39.368C172.349 38.792 173.021 38.056 173.693 37.16C174.397 36.232 175.037 35.224 175.613 34.136C176.189 33.016 176.653 31.896 177.005 30.776C177.389 29.624 177.581 28.568 177.581 27.608C177.581 26.68 177.405 26.008 177.053 25.592C176.733 25.176 176.301 24.968 175.757 24.968C175.533 24.968 175.309 25.032 175.085 25.16C174.861 25.256 174.669 25.304 174.509 25.304C174.349 25.304 174.269 25.224 174.269 25.064C174.269 24.904 174.429 24.728 174.749 24.536C175.101 24.344 175.613 24.248 176.285 24.248C176.893 24.248 177.501 24.408 178.109 24.728C178.749 25.048 179.277 25.576 179.693 26.312C180.109 27.016 180.317 27.944 180.317 29.096C180.317 30.472 179.997 31.88 179.357 33.32C178.717 34.728 177.885 36.04 176.861 37.256C175.837 38.44 174.701 39.4 173.453 40.136C172.237 40.872 171.053 41.24 169.901 41.24ZM186.132 41.192C184.948 41.192 183.876 40.808 182.916 40.04C181.988 39.272 181.524 38.104 181.524 36.536C181.524 35.224 181.812 33.832 182.388 32.36C182.996 30.888 183.78 29.512 184.74 28.232C185.732 26.92 186.82 25.864 188.004 25.064C189.22 24.232 190.436 23.816 191.652 23.816C192.26 23.816 192.852 23.992 193.428 24.344C194.004 24.696 194.292 25.304 194.292 26.168C194.292 26.968 193.988 27.848 193.38 28.808C192.772 29.768 191.908 30.664 190.788 31.496C190.308 31.848 189.7 32.184 188.964 32.504C188.228 32.824 187.492 33.096 186.756 33.32C186.02 33.512 185.412 33.608 184.932 33.608C184.772 33.992 184.612 34.504 184.452 35.144C184.324 35.784 184.26 36.44 184.26 37.112C184.26 37.912 184.42 38.632 184.74 39.272C185.06 39.912 185.652 40.232 186.516 40.232C187.572 40.232 188.548 39.928 189.444 39.32C190.372 38.712 191.188 37.944 191.892 37.016C192.628 36.088 193.252 35.144 193.764 34.184C194.276 33.224 194.676 32.408 194.964 31.736C195.348 31.736 195.54 31.88 195.54 32.168C195.124 33.064 194.644 34.04 194.1 35.096C193.588 36.152 192.964 37.144 192.228 38.072C191.524 38.968 190.66 39.72 189.636 40.328C188.644 40.904 187.476 41.192 186.132 41.192ZM185.268 32.744C185.716 32.744 186.468 32.584 187.524 32.264C188.58 31.912 189.54 31.368 190.404 30.632C191.236 29.896 191.876 29.096 192.324 28.232C192.772 27.336 192.996 26.584 192.996 25.976C192.996 25.272 192.74 24.92 192.228 24.92C191.844 24.92 191.316 25.176 190.644 25.688C189.972 26.2 189.14 27.064 188.148 28.28C187.54 29.048 186.964 29.88 186.42 30.776C185.876 31.672 185.492 32.328 185.268 32.744Z" fill="#241217"/>
</svg>
