<svg width="104" height="30" viewBox="0 0 104 30" fill="none" xmlns="http://www.w3.org/2000/svg">
<path d="M2 13C0.89543 13 0 13.8954 0 15C0 16.1046 0.89543 17 2 17V13ZM103.414 16.4142C104.195 15.6332 104.195 14.3668 103.414 13.5858L90.6863 0.857864C89.9052 0.0768156 88.6389 0.0768156 87.8579 0.857864C87.0768 1.63891 87.0768 2.90524 87.8579 3.68629L99.1716 15L87.8579 26.3137C87.0768 27.0948 87.0768 28.3611 87.8579 29.1421C88.6389 29.9232 89.9052 29.9232 90.6863 29.1421L103.414 16.4142ZM2 17H102V13H2V17Z" fill="#D36D88"/>
</svg>
