<?xml version="1.0" encoding="utf-8"?><svg viewBox="0 0 196 46" xmlns="http://www.w3.org/2000/svg" xmlns:xlink="http://www.w3.org/1999/xlink"><style>:root>svg{display:none}:root>svg:target{display:block}</style><svg viewBox="0 0 196 46" id="header--logo" xmlns="http://www.w3.org/2000/svg"><path d="M17.624 45.848c-3.52 0-6.592-.544-9.216-1.632C5.816 43.128 3.8 41.64 2.36 39.752.952 37.832.248 35.656.248 33.224c0-1.984.352-3.792 1.056-5.424.704-1.632 1.632-2.992 2.784-4.08 1.184-1.088 2.48-1.808 3.888-2.16.224-.032.336.048.336.24 0 .16-.08.288-.24.384-1.664.992-2.944 2.416-3.84 4.272-.864 1.856-1.296 3.92-1.296 6.192 0 2.464.64 4.592 1.92 6.384 1.28 1.76 3.024 3.104 5.232 4.032 2.24.96 4.752 1.44 7.536 1.44 2.4 0 4.672-.432 6.816-1.296a22.02 22.02 0 0 0 6-3.456 30.113 30.113 0 0 0 4.896-4.992 32.974 32.974 0 0 0 3.696-5.904c.224-.48.448-.944.672-1.392l.672-1.344c-.768-.032-1.472-.064-2.112-.096a28.587 28.587 0 0 0-1.248-.048c-.864 0-1.792.064-2.784.192-.96.096-1.872.304-2.736.624-.832.32-1.52.816-2.064 1.488-.224.224-.368.4-.432.528-.032.128-.096.192-.192.192-.128 0-.24-.096-.336-.288-.096-.224-.08-.464.048-.72.736-1.632 1.776-2.736 3.12-3.312 1.344-.608 2.848-.912 4.512-.912.352 0 1.008.064 1.968.192.992.096 2.032.208 3.12.336a1931.61 1931.61 0 0 1 3.84-7.728c1.184-2.304 2.288-4.224 3.312-5.76a73.974 73.974 0 0 0-7.344-2.016c-2.592-.608-5.376-.912-8.352-.912-2.208 0-4.208.304-6 .912-1.792.608-3.328 1.424-4.608 2.448-1.248 1.024-2.208 2.16-2.88 3.408-.672 1.248-1.008 2.496-1.008 3.744 0 1.408.272 2.528.816 3.36.544.832 1.248 1.44 2.112 1.824a7.425 7.425 0 0 0 2.736.528c1.376 0 2.544-.336 3.504-1.008.992-.672 1.776-1.424 2.352-2.256.576-.864.928-1.568 1.056-2.112.128-.512.32-.768.576-.768.384 0 .544.224.48.672-.192 1.408-.688 2.624-1.488 3.648a8.018 8.018 0 0 1-2.928 2.352 8.883 8.883 0 0 1-3.648.768c-1.312 0-2.576-.32-3.792-.96-1.216-.64-2.208-1.568-2.976-2.784-.768-1.216-1.152-2.688-1.152-4.416 0-1.408.304-2.8.912-4.176.64-1.408 1.584-2.688 2.832-3.84 1.28-1.184 2.896-2.128 4.848-2.832 1.952-.704 4.256-1.056 6.912-1.056 1.888 0 3.824.224 5.808.672 1.984.416 3.984.96 6 1.632a167.36 167.36 0 0 1 6.048 2.016c.672-.864 1.312-1.52 1.92-1.968.608-.48 1.216-.72 1.824-.72.256 0 .432.064.528.192.096.096.144.192.144.288a.86.86 0 0 1-.144.432c-.096.16-.272.24-.528.24-1.056 0-2.048.592-2.976 1.776 2.304.768 4.512 1.456 6.624 2.064 2.144.576 4.128.864 5.952.864 1.408 0 2.336-.144 2.784-.432.448-.32.672-.752.672-1.296 0-.352.112-.528.336-.528.16 0 .304.112.432.336.16.192.24.432.24.72 0 .768-.432 1.392-1.296 1.872-.832.48-2 .72-3.504.72-1.984 0-4.048-.32-6.192-.96a398.732 398.732 0 0 1-6.816-2.208c-.864 1.44-1.712 3.328-2.544 5.664a409.303 409.303 0 0 1-2.928 7.824c1.376.128 2.832.24 4.368.336 1.536.064 2.784.096 3.744.096.32 0 .48.096.48.288 0 .256-.368.48-1.104.672-.48.128-1.296.224-2.448.288a61.48 61.48 0 0 1-3.504.096h-.96c-.384-.032-.8-.048-1.248-.048a111.66 111.66 0 0 1-.912 2.256 60.229 60.229 0 0 1-.96 2.304c-1.344 3.168-2.992 5.744-4.944 7.728-1.92 1.952-3.984 3.456-6.192 4.512-2.176 1.088-4.352 1.824-6.528 2.208-2.144.384-4.112.576-5.904.576Zm40.183-4.704c-1.184 0-2.064-.352-2.64-1.056-.544-.736-.816-1.6-.816-2.592 0-1.024.144-2.08.432-3.168.288-1.088.544-2 .768-2.736a70.605 70.605 0 0 1 1.92-5.712 91.555 91.555 0 0 1 2.592-6 72.54 72.54 0 0 1 2.832-5.328c.736-1.248 1.52-2.176 2.352-2.784.864-.64 1.616-.96 2.256-.96.512 0 .912.192 1.2.576.32.352.48.896.48 1.632 0 .512-.096 1.12-.288 1.824-.16.704-.448 1.504-.864 2.4a61.173 61.173 0 0 1-4.032 7.488c-1.536 2.496-3.488 4.832-5.856 7.008a18.996 18.996 0 0 0-.96 2.88c-.256 1.024-.384 1.856-.384 2.496 0 1.984.672 2.976 2.016 2.976 1.024 0 2.16-.736 3.408-2.208 1.248-1.504 2.432-3.552 3.552-6.144.128 0 .256.032.384.096.128.032.192.144.192.336a36.17 36.17 0 0 1-1.344 2.88 18.6 18.6 0 0 1-1.824 2.928 9.447 9.447 0 0 1-2.352 2.304c-.896.576-1.904.864-3.024.864Zm.72-10.944c1.152-1.184 2.272-2.544 3.36-4.08a58.367 58.367 0 0 0 3.024-4.848c.96-1.696 1.76-3.296 2.4-4.8.224-.48.4-1.008.528-1.584.16-.576.24-1.056.24-1.44 0-.448-.112-.672-.336-.672-.128 0-.32.128-.576.384-.256.224-.592.624-1.008 1.2-.608.8-1.28 1.888-2.016 3.264a144.734 144.734 0 0 0-2.16 4.416 105.857 105.857 0 0 0-2.016 4.56 83.42 83.42 0 0 0-1.44 3.6Zm15.45-6.048c1.216 0 2.129.4 2.736 1.2.64.8 1.009 1.808 1.105 3.024.096 1.472-.144 2.976-.72 4.512l-.288.768c1.055.16 1.983-.208 2.784-1.104.8-.928 1.472-2.192 2.016-3.792a38.614 38.614 0 0 0 1.344-4.128c.384-1.376.688-2.656.912-3.84.096-.512.272-.88.528-1.104.255-.256.527-.384.816-.384.416 0 .8.208 1.152.624.352.384.528.944.528 1.68 0 .128-.016.272-.049.432 0 .16-.015.32-.047.48-.129.672-.513 1.312-1.153 1.92-.608.576-1.104 1.008-1.488 1.296.32.032.656.064 1.008.096h1.153c1.504 0 2.992-.096 4.464-.288.063.192.096.336.096.432 0 .416-.128.944-.384 1.584-.224.64-.465 1.216-.72 1.728-.129.288-.385.816-.769 1.584-.383.736-.8 1.584-1.248 2.544a25.602 25.602 0 0 0-1.151 2.784c-.288.896-.433 1.664-.433 2.304 0 .832.32 1.248.96 1.248.48 0 1.008-.304 1.584-.912.577-.608 1.153-1.36 1.729-2.256a32.892 32.892 0 0 0 1.536-2.64c.48-.896.832-1.632 1.056-2.208.383 0 .575.144.575.432a43.298 43.298 0 0 1-1.727 3.456 17.752 17.752 0 0 1-2.353 3.456c-.895 1.024-1.871 1.664-2.927 1.92-.097.032-.273.048-.529.048-.607 0-1.215-.24-1.823-.72-.609-.512-.912-1.328-.912-2.448 0-.864.208-1.856.624-2.976a16.044 16.044 0 0 1 1.535-3.168c.672-1.024 1.153-1.856 1.44-2.496.097-.256.145-.48.145-.672 0-.576-.368-.992-1.104-1.248-.704-.256-1.632-.4-2.784-.432l-.576 1.584c-.672 2.208-1.536 3.872-2.593 4.992-1.024 1.088-2.256 1.472-3.696 1.152a16.662 16.662 0 0 1-2.063 3.072c-.833.96-1.729 1.76-2.689 2.4-.96.608-1.936.912-2.927.912-1.217 0-2.145-.4-2.785-1.2-.608-.832-.96-1.84-1.055-3.024-.097-1.408.144-2.912.72-4.512a15.132 15.132 0 0 1 2.111-4.032c.928-1.216 1.936-2.192 3.024-2.928 1.12-.768 2.224-1.152 3.313-1.152Zm2.448 6.24c.193-.832.257-1.616.193-2.352-.032-.736-.209-1.312-.528-1.728-.32-.416-.769-.624-1.344-.624-.672 0-1.376.288-2.112.864-.737.576-1.44 1.344-2.112 2.304-.64.96-1.2 2.032-1.68 3.216a19.006 19.006 0 0 0-1.008 3.168c-.225.992-.305 1.856-.24 2.592.064.64.224 1.152.48 1.536.288.384.704.576 1.248.576.736 0 1.487-.32 2.255-.96a12.223 12.223 0 0 0 2.112-2.304c.64-.896 1.137-1.728 1.489-2.496-.448-.448-.784-.912-1.008-1.392-.225-.512-.337-.896-.337-1.152-.031-.512.064-.944.288-1.296.225-.352.609-.528 1.153-.528.448 0 .832.192 1.151.576Zm27.042 10.752a3.277 3.277 0 0 1-1.968-.624c-.544-.416-.816-1.264-.816-2.544 0-.544.032-1.056.096-1.536.096-.48.208-.992.336-1.536a25.15 25.15 0 0 1-1.2 1.776 20.368 20.368 0 0 1-1.728 2.064 10.327 10.327 0 0 1-1.92 1.68c-.64.448-1.248.672-1.824.672-.832 0-1.504-.368-2.016-1.104-.512-.768-.768-1.76-.768-2.976 0-1.312.304-2.72.912-4.224a18.439 18.439 0 0 1 2.496-4.32c1.056-1.376 2.272-2.496 3.648-3.36 1.376-.864 2.816-1.296 4.32-1.296.736 0 1.44.128 2.112.384a4.267 4.267 0 0 1 1.776 1.152c.224.224.336.48.336.768 0 .192-.08.352-.24.48-.16.128-.368.16-.624.096-.352-1.12-1.104-1.68-2.256-1.68-.544 0-1.168.176-1.872.528-.864.448-1.792 1.168-2.784 2.16-.96.96-1.872 2.064-2.736 3.312a22.41 22.41 0 0 0-2.064 3.696c-.544 1.248-.816 2.384-.816 3.408 0 1.056.4 1.584 1.2 1.584.704 0 1.424-.336 2.16-1.008.768-.672 1.488-1.504 2.16-2.496a46.964 46.964 0 0 0 1.92-3.024 69.469 69.469 0 0 0 1.344-2.4c.48-.864.928-1.584 1.344-2.16.416-.576 1.008-.864 1.776-.864.352 0 .704.048 1.056.144.352.096.72.112 1.104.048-.96.96-1.808 2.096-2.544 3.408a21.004 21.004 0 0 0-1.632 3.888c-.384 1.248-.576 2.304-.576 3.168 0 .96.32 1.44.96 1.44.512 0 1.056-.288 1.632-.864.608-.576 1.184-1.296 1.728-2.16a39.242 39.242 0 0 0 1.584-2.688c.48-.928.864-1.728 1.152-2.4.16 0 .288.016.384.048.128.032.192.16.192.384a1.634 1.634 0 0 1-.192.432c-.064.128-.176.368-.336.72-.256.512-.608 1.2-1.056 2.064a26.173 26.173 0 0 1-1.584 2.64c-.608.864-1.264 1.6-1.968 2.208-.704.608-1.44.912-2.208.912Zm39.811-31.776c0 1.216-.24 2.72-.72 4.512-.448 1.76-1.056 3.696-1.824 5.808-.736 2.08-1.52 4.208-2.352 6.384a1054.36 1054.36 0 0 0-2.4 6.336 84.721 84.721 0 0 0-1.824 5.52c-.448 1.632-.672 2.944-.672 3.936 0 1.504.496 2.256 1.488 2.256.96 0 2.128-.448 3.504-1.344 1.376-.864 2.832-2.032 4.368-3.504a51.485 51.485 0 0 0 4.608-5.088 56.063 56.063 0 0 0 4.08-5.952c1.248-2.048 2.24-4.064 2.976-6.048.736-2.016 1.104-3.856 1.104-5.52 0-1.12-.16-2.128-.48-3.024-.288-.896-.912-1.344-1.872-1.344-.416 0-.752-.08-1.008-.24-.224-.192-.336-.368-.336-.528 0-.32.272-.48.816-.48.384 0 .864.144 1.44.432.608.256 1.2.672 1.776 1.248.608.544 1.12 1.248 1.536 2.112.416.864.624 1.888.624 3.072 0 1.472-.4 3.184-1.2 5.136-.768 1.92-1.824 3.92-3.168 6a54.891 54.891 0 0 1-4.512 6.048 51.576 51.576 0 0 1-5.232 5.328c-1.824 1.568-3.616 2.816-5.376 3.744-1.728.96-3.328 1.44-4.8 1.44-1.248 0-2.08-.384-2.496-1.152-.416-.768-.624-1.776-.624-3.024 0-1.952.32-4.08.96-6.384a86.31 86.31 0 0 1 2.448-7.152 1179.99 1179.99 0 0 0 2.928-7.44 69.63 69.63 0 0 0 2.448-7.104c.672-2.272 1.008-4.368 1.008-6.288 0-2.176-.624-3.648-1.872-4.416-1.216-.768-2.816-1.152-4.8-1.152-1.952 0-4.032.368-6.24 1.104-2.176.736-4.32 1.776-6.432 3.12a28.07 28.07 0 0 0-5.664 4.848 23.093 23.093 0 0 0-4.08 6.24c-.992 2.272-1.488 4.72-1.488 7.344 0 1.536.256 2.976.768 4.32a7.263 7.263 0 0 0 2.592 3.216c1.184.8 2.736 1.2 4.656 1.2 1.44 0 2.816-.304 4.128-.912a11.933 11.933 0 0 0 3.552-2.448 13.064 13.064 0 0 0 2.448-3.504c.608-1.28.912-2.592.912-3.936 0-1.088-.224-2.032-.672-2.832-.448-.832-1.2-1.248-2.256-1.248-.416 0-.848.064-1.296.192-.448.128-.752.192-.912.192-.16 0-.24-.096-.24-.288 0-.064.032-.144.096-.24s.176-.192.336-.288c.352-.192.784-.336 1.296-.432.512-.128.96-.192 1.344-.192 1.408 0 2.496.496 3.264 1.488.768.992 1.152 2.192 1.152 3.6 0 1.536-.4 3.024-1.2 4.464-.8 1.44-1.872 2.736-3.216 3.888a15.515 15.515 0 0 1-4.464 2.736 13.119 13.119 0 0 1-5.04 1.008c-2.144 0-3.968-.528-5.472-1.584-1.472-1.056-2.592-2.432-3.36-4.128-.736-1.728-1.104-3.568-1.104-5.52a17.8 17.8 0 0 1 1.488-7.2 21.991 21.991 0 0 1 4.176-6.24 28.682 28.682 0 0 1 6-4.896A29.642 29.642 0 0 1 125.95 1.4c2.496-.768 4.976-1.152 7.44-1.152 1.856 0 3.52.304 4.992.912 1.504.608 2.688 1.584 3.552 2.928.896 1.312 1.344 3.072 1.344 5.28ZM159.879 41c-1.184 0-2.016-.336-2.496-1.008-.48-.704-.72-1.504-.72-2.4 0-.48.048-.96.144-1.44.128-.512.272-.976.432-1.392l3.216-8.208c.096-.256.144-.48.144-.672 0-.32-.08-.592-.24-.816a25.27 25.27 0 0 0-.336-.528l2.64-.096c.48-.032.816.032 1.008.192.224.128.336.288.336.48s-.112.544-.336 1.056a70.43 70.43 0 0 1-1.296 2.88 190.602 190.602 0 0 0-1.632 3.552 73.988 73.988 0 0 0-1.344 3.408c-.352 1.056-.528 1.872-.528 2.448 0 .416.096.768.288 1.056.224.288.592.432 1.104.432.672 0 1.328-.256 1.968-.768.672-.544 1.296-1.232 1.872-2.064a21.993 21.993 0 0 0 1.584-2.688c.512-.96.944-1.856 1.296-2.688.384 0 .576.144.576.432-.32.8-.736 1.712-1.248 2.736-.512 1.024-1.104 2-1.776 2.928-.64.896-1.36 1.648-2.16 2.256-.768.608-1.6.912-2.496.912Zm4.272-19.536c-.416 0-.784-.16-1.104-.48a1.663 1.663 0 0 1-.432-1.152c0-.544.224-1.024.672-1.44.448-.448.944-.672 1.488-.672.448 0 .832.144 1.152.432.32.288.48.656.48 1.104 0 .576-.224 1.088-.672 1.536-.448.448-.976.672-1.584.672Zm5.75 19.776c-1.312 0-2.24-.4-2.784-1.2-.544-.8-.816-1.776-.816-2.928 0-.8.08-1.552.24-2.256.192-.704.464-1.504.816-2.4h-.096c-.256 0-.384-.128-.384-.384 0-.128.128-.496.384-1.104.288-.608.64-1.344 1.056-2.208.448-.864.896-1.744 1.344-2.64.48-.896.912-1.696 1.296-2.4.64-1.184 1.344-2.4 2.112-3.648.768-1.28 1.52-2.496 2.256-3.648a179.022 179.022 0 0 1 1.92-2.832c1.152-1.6 2.224-2.4 3.216-2.4h.24c.288 0 .608.048.96.144.384.096.736.112 1.056.048-.48.512-1.216 1.44-2.208 2.784a158.973 158.973 0 0 0-3.168 4.512 83.419 83.419 0 0 0-1.824 2.832 119.422 119.422 0 0 0-2.256 3.984 74.113 74.113 0 0 0-2.256 4.512 39.892 39.892 0 0 0-1.68 4.416c-.448 1.408-.672 2.672-.672 3.792 0 .736.128 1.248.384 1.536.256.288.576.432.96.432.48 0 1.04-.272 1.68-.816.672-.576 1.344-1.312 2.016-2.208a22.099 22.099 0 0 0 1.92-3.024c.576-1.12 1.04-2.24 1.392-3.36.384-1.152.576-2.208.576-3.168 0-.928-.176-1.6-.528-2.016-.32-.416-.752-.624-1.296-.624-.224 0-.448.064-.672.192a1.511 1.511 0 0 1-.576.144c-.16 0-.24-.08-.24-.24 0-.16.16-.336.48-.528.352-.192.864-.288 1.536-.288.608 0 1.216.16 1.824.48.64.32 1.168.848 1.584 1.584.416.704.624 1.632.624 2.784 0 1.376-.32 2.784-.96 4.224a17.032 17.032 0 0 1-2.496 3.936c-1.024 1.184-2.16 2.144-3.408 2.88-1.216.736-2.4 1.104-3.552 1.104Zm16.231-.048c-1.184 0-2.256-.384-3.216-1.152-.928-.768-1.392-1.936-1.392-3.504 0-1.312.288-2.704.864-4.176a18.844 18.844 0 0 1 2.352-4.128c.992-1.312 2.08-2.368 3.264-3.168 1.216-.832 2.432-1.248 3.648-1.248.608 0 1.2.176 1.776.528.576.352.864.96.864 1.824 0 .8-.304 1.68-.912 2.64-.608.96-1.472 1.856-2.592 2.688-.48.352-1.088.688-1.824 1.008-.736.32-1.472.592-2.208.816-.736.192-1.344.288-1.824.288-.16.384-.32.896-.48 1.536a10.01 10.01 0 0 0-.192 1.968c0 .8.16 1.52.48 2.16.32.64.912.96 1.776.96a5.109 5.109 0 0 0 2.928-.912 9.816 9.816 0 0 0 2.448-2.304 18.814 18.814 0 0 0 1.872-2.832c.512-.96.912-1.776 1.2-2.448.384 0 .576.144.576.432a80.041 80.041 0 0 1-1.44 2.928 16.033 16.033 0 0 1-1.872 2.976 9.29 9.29 0 0 1-2.592 2.256c-.992.576-2.16.864-3.504.864Zm-.864-8.448c.448 0 1.2-.16 2.256-.48a8.6 8.6 0 0 0 2.88-1.632c.832-.736 1.472-1.536 1.92-2.4.448-.896.672-1.648.672-2.256 0-.704-.256-1.056-.768-1.056-.384 0-.912.256-1.584.768s-1.504 1.376-2.496 2.592c-.608.768-1.184 1.6-1.728 2.496a49.628 49.628 0 0 0-1.152 1.968Z"/></svg></svg>